<svg width="312" height="97" viewBox="0 0 312 97" fill="none" xmlns="http://www.w3.org/2000/svg">
<path d="M281.777 30.3613C287.637 30.3613 292.324 31.9564 295.84 35.1465C299.388 38.304 301.162 43.3822 301.162 50.3809V85.9766H286.27V54.0918C286.27 50.153 285.57 47.207 284.17 45.2539C282.77 43.2682 280.54 42.2754 277.48 42.2754C272.956 42.2754 269.847 43.8216 268.154 46.9141C266.494 50.0065 265.664 54.4661 265.664 60.293V85.9766H250.771V31.3867H262.148L264.15 38.3691H264.98C266.706 35.5697 269.082 33.5352 272.109 32.2656C275.137 30.9961 278.359 30.3613 281.777 30.3613Z" fill="white"/>
<path d="M227.822 10C230.003 10 231.891 10.5208 233.486 11.5625C235.114 12.5716 235.928 14.4759 235.928 17.2754C235.928 20.0098 235.114 21.9141 233.486 22.9883C231.891 24.0625 230.003 24.5996 227.822 24.5996C225.544 24.5996 223.623 24.0625 222.061 22.9883C220.498 21.9141 219.717 20.0098 219.717 17.2754C219.717 14.4759 220.498 12.5716 222.061 11.5625C223.623 10.5208 225.544 10 227.822 10ZM220.303 85.9766V31.3867H235.195V85.9766H220.303Z" fill="white"/>
<path d="M207.998 58.584C207.998 67.6335 205.622 74.6322 200.869 79.5801C196.117 84.4954 189.639 86.9531 181.436 86.9531C176.357 86.9531 171.833 85.8464 167.861 83.6328C163.89 81.4193 160.765 78.2129 158.486 74.0137C156.24 69.7819 155.117 64.6387 155.117 58.584C155.117 49.502 157.477 42.5358 162.197 37.6855C166.95 32.8027 173.46 30.3613 181.729 30.3613C186.839 30.3613 191.364 31.4518 195.303 33.6328C199.242 35.8138 202.334 39.0202 204.58 43.252C206.859 47.4837 207.998 52.5944 207.998 58.584ZM170.303 58.584C170.303 63.9876 171.182 68.0729 172.939 70.8398C174.73 73.6068 177.627 74.9902 181.631 74.9902C185.57 74.9902 188.418 73.6068 190.176 70.8398C191.934 68.0729 192.812 63.9876 192.812 58.584C192.812 53.1803 191.934 49.1276 190.176 46.4258C188.418 43.724 185.537 42.373 181.533 42.373C177.594 42.373 174.73 43.724 172.939 46.4258C171.182 49.1276 170.303 53.1803 170.303 58.584Z" fill="white"/>
<path d="M129.238 86.9531C121.1 86.9531 114.818 84.7233 110.391 80.2637C105.964 75.804 103.75 68.7077 103.75 58.9746C103.75 52.2689 104.889 46.8327 107.168 42.666C109.414 38.4668 112.555 35.3743 116.592 33.3887C120.628 31.3704 125.283 30.3613 130.557 30.3613C134.3 30.3613 137.555 30.7357 140.322 31.4844C143.089 32.2005 145.498 33.0632 147.549 34.0723L143.154 45.5957C140.811 44.6517 138.613 43.8867 136.562 43.3008C134.544 42.6823 132.542 42.373 130.557 42.373C122.809 42.373 118.936 47.8743 118.936 58.877C118.936 64.3457 119.945 68.3822 121.963 70.9863C124.014 73.5905 126.878 74.8926 130.557 74.8926C133.682 74.8926 136.449 74.4694 138.857 73.623C141.266 72.7767 143.594 71.6211 145.84 70.1562V82.9004C143.594 84.3652 141.217 85.4069 138.711 86.0254C136.204 86.6439 133.047 86.9531 129.238 86.9531Z" fill="white"/>
<path d="M84.0723 10C86.2533 10 88.1413 10.5208 89.7363 11.5625C91.3639 12.5716 92.1777 14.4759 92.1777 17.2754C92.1777 20.0098 91.3639 21.9141 89.7363 22.9883C88.1413 24.0625 86.2533 24.5996 84.0723 24.5996C81.7936 24.5996 79.873 24.0625 78.3105 22.9883C76.748 21.9141 75.9668 20.0098 75.9668 17.2754C75.9668 14.4759 76.748 12.5716 78.3105 11.5625C79.873 10.5208 81.7936 10 84.0723 10ZM76.5527 85.9766V31.3867H91.4453V85.9766H76.5527Z" fill="white"/>
<path d="M30.6055 86.9531C24.5508 86.9531 19.6029 84.5768 15.7617 79.8242C11.9206 75.0716 10 68.0566 10 58.7793C10 49.4368 11.9368 42.373 15.8105 37.5879C19.6842 32.7702 24.7461 30.3613 30.9961 30.3613C34.9349 30.3613 38.1738 31.1426 40.7129 32.7051C43.252 34.235 45.2539 36.123 46.7188 38.3691H47.207C47.0117 37.2949 46.7676 35.7487 46.4746 33.7305C46.2142 31.6797 46.084 29.5964 46.084 27.4805V10H60.9766V85.9766H49.5996L46.7188 78.8965H46.084C44.6191 81.1426 42.6497 83.0469 40.1758 84.6094C37.7344 86.1719 34.5443 86.9531 30.6055 86.9531ZM35.7812 75.0879C39.8503 75.0879 42.7148 73.8672 44.375 71.4258C46.0677 68.9844 46.9792 65.3385 47.1094 60.4883V58.877C47.1094 53.6035 46.2793 49.5508 44.6191 46.7188C42.9915 43.8867 39.9805 42.4707 35.5859 42.4707C32.3307 42.4707 29.7591 43.8867 27.8711 46.7188C26.0156 49.5508 25.0879 53.6361 25.0879 58.9746C25.0879 64.3132 26.0156 68.3333 27.8711 71.0352C29.7591 73.737 32.3958 75.0879 35.7812 75.0879Z" fill="white"/>
</svg>
